<svg id="Capa_1" enable-background="new 0 0 512 512" height="512" viewBox="0 0 512 512" width="512" xmlns="http://www.w3.org/2000/svg"><g><path d="m380.131 108.114h-54.862c-8.496 0-15.408 6.912-15.408 15.408v132.587c0 8.496 6.912 15.408 15.408 15.408h54.862c8.496 0 15.408-6.912 15.408-15.408v-14.422c0-4.143-3.357-7.5-7.5-7.5s-7.5 3.357-7.5 7.5v14.422c0 .225-.184.408-.408.408h-54.862c-.225 0-.408-.184-.408-.408v-105.252h7.129v29.491c0 4.143 3.357 7.5 7.5 7.5h5.711v20.573c0 4.143 3.357 7.5 7.5 7.5s7.5-3.357 7.5-7.5v-20.573h5.711c4.143 0 7.5-3.357 7.5-7.5v-29.491h7.128v61.83c0 4.143 3.357 7.5 7.5 7.5s7.5-3.357 7.5-7.5v-89.165c-.001-8.496-6.913-15.408-15.409-15.408zm-21.72 64.735h-11.422v-21.991h11.422zm-33.551-36.992v-12.335c0-.225.184-.408.408-.408h54.862c.225 0 .408.184.408.408v12.335z"/><path d="m166.612 432.261h-43.628c-4.143 0-7.5 3.357-7.5 7.5s3.357 7.5 7.5 7.5h43.628c4.143 0 7.5-3.357 7.5-7.5s-3.357-7.5-7.5-7.5z"/><path d="m427.943 0h-343.885c-10.179 0-18.459 8.28-18.459 18.458v388.688c0 4.143 3.357 7.5 7.5 7.5s7.5-3.357 7.5-7.5v-388.688c0-1.907 1.552-3.458 3.459-3.458h128.041v453.518h-128.041c-1.907 0-3.459-1.551-3.459-3.458v-28.913c0-4.143-3.357-7.5-7.5-7.5s-7.5 3.357-7.5 7.5v28.913c0 10.178 8.28 18.458 18.459 18.458h9.63v20.982c0 4.143 3.357 7.5 7.5 7.5h89.484c4.143 0 7.5-3.357 7.5-7.5v-20.982h115.656v20.982c0 4.143 3.357 7.5 7.5 7.5h89.485c4.143 0 7.5-3.357 7.5-7.5v-20.982h9.63c10.178 0 18.458-8.28 18.458-18.458v-446.602c0-10.178-8.28-18.458-18.458-18.458zm-244.771 497h-74.484v-13.482h74.484zm220.141 0h-74.485v-13.482h74.485zm28.088-31.94c0 1.907-1.552 3.458-3.458 3.458h-200.844v-114.393l27.229-22.44c5.829-4.806 9.173-11.894 9.173-19.447v-232.486c0-4.143-3.357-7.5-7.5-7.5s-7.5 3.357-7.5 7.5v232.485c0 3.058-1.354 5.928-3.713 7.872l-17.688 14.578v-319.687h21.4v35.752c0 4.143 3.357 7.5 7.5 7.5s7.5-3.357 7.5-7.5v-35.752h164.443c1.906 0 3.458 1.551 3.458 3.458z"/><path d="m180.861 91.469v-24.296c0-4.993-2.687-9.646-7.011-12.144l-21.04-12.148c-4.322-2.494-9.694-2.496-14.022 0l-21.041 12.148c-4.324 2.497-7.011 7.15-7.011 12.144v24.296c0 4.993 2.687 9.646 7.011 12.144l21.042 12.148c2.162 1.248 4.587 1.872 7.011 1.872 2.425 0 4.849-.625 7.011-1.873l21.041-12.147c4.323-2.498 7.009-7.151 7.009-12.144zm-15-.565-20.062 11.583-20.063-11.583v-23.167l20.062-11.584 20.063 11.584z"/><path d="m138.329 71.851c-3.828.34-6.828 3.554-6.828 7.47s3 7.13 6.828 7.47c.34 3.828 3.554 6.828 7.47 6.828s7.13-3 7.47-6.828c3.827-.34 6.827-3.554 6.827-7.47s-3-7.129-6.827-7.47c-.34-3.827-3.554-6.827-7.47-6.827-3.916-.001-7.13 2.999-7.47 6.827z"/></g></svg>