<svg id="Capa_1" enable-background="new 0 0 512 512" height="512" viewBox="0 0 512 512" width="512" xmlns="http://www.w3.org/2000/svg"><g><path d="m406.464 28.401h-18.785c-3.458-16.208-17.888-28.401-35.113-28.401h-126.526c-4.143 0-7.5 3.357-7.5 7.5s3.357 7.5 7.5 7.5h126.526c8.883 0 16.489 5.57 19.511 13.401h-232.153c3.021-7.831 10.628-13.401 19.511-13.401h37.605c4.143 0 7.5-3.357 7.5-7.5s-3.357-7.5-7.5-7.5h-37.605c-17.224 0-31.654 12.193-35.113 28.401h-18.785c-13.917 0-25.239 11.322-25.239 25.238v443.556c0 8.163 6.641 14.805 14.804 14.805h46.369c6.439 0 12.099-4.115 14.083-10.24l8.398-25.916h19.64c4.143 0 7.5-3.357 7.5-7.5s-3.357-7.5-7.5-7.5h-19.782c-6.439 0-12.099 4.115-14.083 10.239l-8.399 25.917h-46.03v-68.215h321.404v68.215h-46.03l-8.397-25.918c-1.986-6.124-7.646-10.238-14.083-10.238h-135.6c-4.143 0-7.5 3.357-7.5 7.5s3.357 7.5 7.5 7.5h135.457l8.397 25.917c1.986 6.124 7.646 10.239 14.083 10.239h46.369c8.163 0 14.804-6.642 14.804-14.805v-443.555c0-13.916-11.322-25.239-25.238-25.239zm-311.166 385.384v-29.949h35.735c4.143 0 7.5-3.357 7.5-7.5s-3.357-7.5-7.5-7.5h-35.735v-11.862h35.735c4.143 0 7.5-3.357 7.5-7.5s-3.357-7.5-7.5-7.5h-35.735v-11.862h35.735c4.143 0 7.5-3.357 7.5-7.5s-3.357-7.5-7.5-7.5h-35.735v-11.862h35.735c4.143 0 7.5-3.357 7.5-7.5s-3.357-7.5-7.5-7.5h-35.735v-11.862h35.735c4.143 0 7.5-3.357 7.5-7.5s-3.357-7.5-7.5-7.5h-35.735v-11.862h35.735c4.143 0 7.5-3.357 7.5-7.5s-3.357-7.5-7.5-7.5h-35.735v-11.862h35.735c4.143 0 7.5-3.357 7.5-7.5s-3.357-7.5-7.5-7.5h-35.735v-11.864h35.735c4.143 0 7.5-3.357 7.5-7.5s-3.357-7.5-7.5-7.5h-35.735v-11.863h35.735c4.143 0 7.5-3.357 7.5-7.5s-3.357-7.5-7.5-7.5h-35.735v-11.862h35.735c4.143 0 7.5-3.357 7.5-7.5s-3.357-7.5-7.5-7.5h-35.735v-11.862h35.735c4.143 0 7.5-3.357 7.5-7.5s-3.357-7.5-7.5-7.5h-35.735v-11.863h35.735c4.143 0 7.5-3.357 7.5-7.5s-3.357-7.5-7.5-7.5h-35.735v-19.71c0-5.646 4.594-10.238 10.239-10.238h300.927c5.646 0 10.238 4.593 10.238 10.238v19.71h-35.734c-4.143 0-7.5 3.357-7.5 7.5s3.357 7.5 7.5 7.5h35.734v11.862h-35.734c-4.143 0-7.5 3.357-7.5 7.5s3.357 7.5 7.5 7.5h35.734v11.862h-35.734c-4.143 0-7.5 3.357-7.5 7.5s3.357 7.5 7.5 7.5h35.734v11.862h-35.734c-4.143 0-7.5 3.357-7.5 7.5s3.357 7.5 7.5 7.5h35.734v11.864h-35.734c-4.143 0-7.5 3.357-7.5 7.5s3.357 7.5 7.5 7.5h35.734v11.862h-35.734c-4.143 0-7.5 3.357-7.5 7.5s3.357 7.5 7.5 7.5h35.734v11.862h-35.734c-4.143 0-7.5 3.357-7.5 7.5s3.357 7.5 7.5 7.5h35.734v11.862h-35.734c-4.143 0-7.5 3.357-7.5 7.5s3.357 7.5 7.5 7.5h35.734v11.862h-35.734c-4.143 0-7.5 3.357-7.5 7.5s3.357 7.5 7.5 7.5h35.734v11.862h-35.734c-4.143 0-7.5 3.357-7.5 7.5s3.357 7.5 7.5 7.5h35.734v11.862h-35.734c-4.143 0-7.5 3.357-7.5 7.5s3.357 7.5 7.5 7.5h35.734v11.862h-35.734c-4.143 0-7.5 3.357-7.5 7.5s3.357 7.5 7.5 7.5h35.734v29.949h-321.404z"/><path d="m287.467 236.932c-.194-4.354-.707-8.555-1.524-12.486-.806-3.869-3.826-6.907-7.696-7.739-2.823-.605-5.71.041-7.97 1.673-.851-8.715-3.767-17.088-8.719-24.997-1.968-3.143-5.489-4.928-9.195-4.663-3.708.266-6.943 2.54-8.443 5.935-3.153 7.139-6.476 12.101-9.407 16.479-4.805 7.176-9.344 13.954-9.975 25.733-.801 15.668 12.885 31.628 31.463 31.628 18.239-.002 32.17-15.508 31.466-31.563zm-31.467 16.561c-9.019 0-16.368-7.176-16.473-16.035.447-7.525 3.093-11.476 7.448-17.98 1.828-2.73 3.919-5.853 6.079-9.654 2.111 5.708 2.869 11.602 2.31 17.824-.285 3.162.956 6.312 3.32 8.425 2.367 2.116 5.503 2.965 8.604 2.33 1.796-.367 3.51-.998 5.137-1.888.019.301.035.604.049.908-.085 8.876-7.443 16.07-16.474 16.07z"/><path d="m202.937 120.469h-4.845c-4.143 0-7.5 3.357-7.5 7.5s3.357 7.5 7.5 7.5h4.845c4.143 0 7.5-3.357 7.5-7.5s-3.358-7.5-7.5-7.5z"/><path d="m235.083 135.469h4.844c4.143 0 7.5-3.357 7.5-7.5s-3.357-7.5-7.5-7.5h-4.844c-4.143 0-7.5 3.357-7.5 7.5s3.357 7.5 7.5 7.5z"/><path d="m272.074 135.469h4.844c4.143 0 7.5-3.357 7.5-7.5s-3.357-7.5-7.5-7.5h-4.844c-4.143 0-7.5 3.357-7.5 7.5s3.358 7.5 7.5 7.5z"/><path d="m313.908 120.469h-4.844c-4.143 0-7.5 3.357-7.5 7.5s3.357 7.5 7.5 7.5h4.844c4.143 0 7.5-3.357 7.5-7.5s-3.357-7.5-7.5-7.5z"/><path d="m202.937 154.011h-4.845c-4.143 0-7.5 3.357-7.5 7.5s3.357 7.5 7.5 7.5h4.845c4.143 0 7.5-3.357 7.5-7.5s-3.358-7.5-7.5-7.5z"/><path d="m235.083 169.011h4.844c4.143 0 7.5-3.357 7.5-7.5s-3.357-7.5-7.5-7.5h-4.844c-4.143 0-7.5 3.357-7.5 7.5s3.357 7.5 7.5 7.5z"/><path d="m272.074 169.011h4.844c4.143 0 7.5-3.357 7.5-7.5s-3.357-7.5-7.5-7.5h-4.844c-4.143 0-7.5 3.357-7.5 7.5s3.358 7.5 7.5 7.5z"/><path d="m313.908 154.011h-4.844c-4.143 0-7.5 3.357-7.5 7.5s3.357 7.5 7.5 7.5h4.844c4.143 0 7.5-3.357 7.5-7.5s-3.357-7.5-7.5-7.5z"/><path d="m202.937 187.552h-4.845c-4.143 0-7.5 3.357-7.5 7.5s3.357 7.5 7.5 7.5h4.845c4.143 0 7.5-3.357 7.5-7.5s-3.358-7.5-7.5-7.5z"/><path d="m313.908 187.552h-4.844c-4.143 0-7.5 3.357-7.5 7.5s3.357 7.5 7.5 7.5h4.844c4.143 0 7.5-3.357 7.5-7.5s-3.357-7.5-7.5-7.5z"/><path d="m202.937 221.093h-4.845c-4.143 0-7.5 3.357-7.5 7.5s3.357 7.5 7.5 7.5h4.845c4.143 0 7.5-3.357 7.5-7.5s-3.358-7.5-7.5-7.5z"/><path d="m313.908 221.093h-4.844c-4.143 0-7.5 3.357-7.5 7.5s3.357 7.5 7.5 7.5h4.844c4.143 0 7.5-3.357 7.5-7.5s-3.357-7.5-7.5-7.5z"/><path d="m202.937 254.634h-4.845c-4.143 0-7.5 3.357-7.5 7.5s3.357 7.5 7.5 7.5h4.845c4.143 0 7.5-3.357 7.5-7.5s-3.358-7.5-7.5-7.5z"/><path d="m313.908 254.634h-4.844c-4.143 0-7.5 3.357-7.5 7.5s3.357 7.5 7.5 7.5h4.844c4.143 0 7.5-3.357 7.5-7.5s-3.357-7.5-7.5-7.5z"/><path d="m202.937 288.176h-4.845c-4.143 0-7.5 3.357-7.5 7.5s3.357 7.5 7.5 7.5h4.845c4.143 0 7.5-3.357 7.5-7.5s-3.358-7.5-7.5-7.5z"/><path d="m239.927 288.176h-4.844c-4.143 0-7.5 3.357-7.5 7.5s3.357 7.5 7.5 7.5h4.844c4.143 0 7.5-3.357 7.5-7.5s-3.358-7.5-7.5-7.5z"/><path d="m276.918 288.176h-4.844c-4.143 0-7.5 3.357-7.5 7.5s3.357 7.5 7.5 7.5h4.844c4.143 0 7.5-3.357 7.5-7.5s-3.357-7.5-7.5-7.5z"/><path d="m313.908 288.176h-4.844c-4.143 0-7.5 3.357-7.5 7.5s3.357 7.5 7.5 7.5h4.844c4.143 0 7.5-3.357 7.5-7.5s-3.357-7.5-7.5-7.5z"/><path d="m202.937 321.717h-4.845c-4.143 0-7.5 3.357-7.5 7.5s3.357 7.5 7.5 7.5h4.845c4.143 0 7.5-3.357 7.5-7.5s-3.358-7.5-7.5-7.5z"/><path d="m239.927 321.717h-4.844c-4.143 0-7.5 3.357-7.5 7.5s3.357 7.5 7.5 7.5h4.844c4.143 0 7.5-3.357 7.5-7.5s-3.358-7.5-7.5-7.5z"/><path d="m276.918 321.717h-4.844c-4.143 0-7.5 3.357-7.5 7.5s3.357 7.5 7.5 7.5h4.844c4.143 0 7.5-3.357 7.5-7.5s-3.357-7.5-7.5-7.5z"/><path d="m313.908 321.717h-4.844c-4.143 0-7.5 3.357-7.5 7.5s3.357 7.5 7.5 7.5h4.844c4.143 0 7.5-3.357 7.5-7.5s-3.357-7.5-7.5-7.5z"/><path d="m171.613 73.445h9.066c4.143 0 7.5-3.357 7.5-7.5s-3.357-7.5-7.5-7.5h-9.066c-4.143 0-7.5 3.357-7.5 7.5s3.358 7.5 7.5 7.5z"/><path d="m211.54 73.445h9.066c4.143 0 7.5-3.357 7.5-7.5s-3.357-7.5-7.5-7.5h-9.066c-4.143 0-7.5 3.357-7.5 7.5s3.357 7.5 7.5 7.5z"/><path d="m251.467 73.445h9.066c4.143 0 7.5-3.357 7.5-7.5s-3.357-7.5-7.5-7.5h-9.066c-4.143 0-7.5 3.357-7.5 7.5s3.357 7.5 7.5 7.5z"/><path d="m291.395 73.445h9.066c4.143 0 7.5-3.357 7.5-7.5s-3.357-7.5-7.5-7.5h-9.066c-4.143 0-7.5 3.357-7.5 7.5s3.357 7.5 7.5 7.5z"/><path d="m331.321 73.445h9.066c4.143 0 7.5-3.357 7.5-7.5s-3.357-7.5-7.5-7.5h-9.066c-4.143 0-7.5 3.357-7.5 7.5s3.358 7.5 7.5 7.5z"/><path d="m306.971 379.473h-101.941c-4.143 0-7.5 3.357-7.5 7.5s3.357 7.5 7.5 7.5h101.94c4.143 0 7.5-3.357 7.5-7.5s-3.357-7.5-7.499-7.5z"/><path d="m332.518 91.295h-153.036c-9.597 0-17.404 7.808-17.404 17.404v239.788c0 9.597 7.808 17.403 17.404 17.403h153.035c9.597 0 17.404-7.807 17.404-17.403v-19.163c0-4.143-3.357-7.5-7.5-7.5s-7.5 3.357-7.5 7.5v19.163c0 1.325-1.078 2.403-2.404 2.403h-153.035c-1.326 0-2.404-1.078-2.404-2.403v-239.788c0-1.326 1.078-2.404 2.404-2.404h153.035c1.326 0 2.404 1.078 2.404 2.404v191.625c0 4.143 3.357 7.5 7.5 7.5s7.5-3.357 7.5-7.5v-191.625c.001-9.596-7.807-17.404-17.403-17.404z"/></g></svg>