<svg id="Capa_1" enable-background="new 0 0 512 512" height="512" viewBox="0 0 512 512" width="512" xmlns="http://www.w3.org/2000/svg"><g><path d="m248.989 320.256c2.162 1.248 4.586 1.873 7.011 1.873 2.424 0 4.849-.625 7.012-1.873l21.041-12.148c4.324-2.497 7.011-7.15 7.011-12.144v-24.296c0-4.993-2.687-9.646-7.011-12.144l-21.042-12.148c-4.325-2.497-9.698-2.494-14.021.001l-21.041 12.147c-4.324 2.497-7.011 7.15-7.011 12.144v24.296c0 4.993 2.687 9.646 7.011 12.144zm-13.052-48.024 20.063-11.583 20.063 11.583v23.167l-20.063 11.584-20.063-11.584z"/><path d="m263.469 291.286c3.828-.34 6.828-3.554 6.828-7.47s-3-7.13-6.828-7.47c-.34-3.828-3.554-6.828-7.47-6.828s-7.13 3-7.47 6.828c-3.827.34-6.827 3.554-6.827 7.47s3 7.129 6.827 7.47c.34 3.827 3.554 6.827 7.47 6.827s7.13-3 7.47-6.827z"/><path d="m212.095 349.487v13.191c0 9.267 7.538 16.805 16.805 16.805h54.2c9.266 0 16.804-7.538 16.804-16.805v-13.191c0-9.267-7.538-16.805-16.804-16.805h-54.2c-9.267.001-16.805 7.539-16.805 16.805zm72.809 0v13.191c0 .995-.81 1.805-1.804 1.805h-19.6v-16.801h19.6c.994.001 1.804.81 1.804 1.805zm-57.809 0c0-.995.81-1.805 1.805-1.805h19.6v16.801h-19.6c-.995 0-1.805-.81-1.805-1.805z"/><path d="m350.13 468.518h-38.493v-15.944c0-4.143-3.357-7.5-7.5-7.5s-7.5 3.357-7.5 7.5v15.944h-81.275v-60.89h81.275v15.945c0 4.143 3.357 7.5 7.5 7.5s7.5-3.357 7.5-7.5v-15.945h27.032c8.634 0 15.658-7.024 15.658-15.658v-376.312c.001-8.634-7.024-15.658-15.658-15.658h-116.307c-4.143 0-7.5 3.357-7.5 7.5s3.357 7.5 7.5 7.5h116.308c.363 0 .658.295.658.658v376.312c0 .363-.295.658-.658.658h-165.339c-.363 0-.658-.295-.658-.658v-376.312c0-.363.295-.658.658-.658h20.031c4.143 0 7.5-3.357 7.5-7.5s-3.357-7.5-7.5-7.5h-20.031c-8.634 0-15.658 7.024-15.658 15.658v376.312c0 8.634 7.024 15.658 15.658 15.658h27.031v60.89h-38.492c-4.143 0-7.5 3.357-7.5 7.5v28.482c0 4.143 3.357 7.5 7.5 7.5h188.26c4.143 0 7.5-3.357 7.5-7.5v-28.482c0-4.143-3.357-7.5-7.5-7.5zm-7.5 28.482h-173.26v-13.482h38.415c.026 0 .052.001.077.001h96.275c.026 0 .052-.001.077-.001h38.416z"/><path d="m321.3 219.908v-174.954c0-8.871-7.217-16.088-16.087-16.088h-98.427c-8.87 0-16.087 7.217-16.087 16.088v174.954c0 8.87 7.217 16.087 16.087 16.087h45.363c4.143 0 7.5-3.357 7.5-7.5s-3.357-7.5-7.5-7.5h-45.363c-.6 0-1.087-.487-1.087-1.087v-15.95h100.601v15.95c0 .6-.487 1.087-1.087 1.087h-24.063c-4.143 0-7.5 3.357-7.5 7.5s3.357 7.5 7.5 7.5h24.063c8.87 0 16.087-7.217 16.087-16.087zm-115.6-144.005h100.6v7.009h-100.6zm0 53.024h100.6v7.009h-100.6zm100.6-31.015v16.015h-100.6v-16.015zm-100.6 53.024h100.6v16.014h-100.6zm1.087-107.07h98.427c.6 0 1.087.488 1.087 1.088v15.949h-100.601v-15.949c0-.6.487-1.088 1.087-1.088zm-1.087 145.092v-7.009h100.6v7.009z"/></g></svg>