<svg id="Capa_1" enable-background="new 0 0 512 512" height="512" viewBox="0 0 512 512" width="512" xmlns="http://www.w3.org/2000/svg"><g><path d="m340.374 422.744 3.812 3.812c1.465 1.464 3.385 2.196 5.304 2.196s3.839-.732 5.304-2.196c2.929-2.93 2.929-7.678 0-10.607l-3.812-3.812c-2.93-2.928-7.678-2.928-10.607 0-2.93 2.929-2.93 7.677-.001 10.607z"/><path d="m40.086 412.137-3.812 3.812c-2.929 2.93-2.929 7.678 0 10.607 1.465 1.464 3.385 2.196 5.304 2.196s3.839-.732 5.304-2.196l3.812-3.812c2.929-2.93 2.929-7.678 0-10.607-2.93-2.928-7.678-2.928-10.608 0z"/><path d="m46.882 108.036c-2.93-2.928-7.678-2.928-10.607 0-2.929 2.93-2.929 7.678 0 10.607l3.812 3.812c1.465 1.464 3.385 2.196 5.304 2.196s3.839-.732 5.304-2.196c2.929-2.93 2.929-7.678 0-10.607z"/><path d="m141.669 169.957c-2.249-3.48-6.895-4.478-10.37-2.228-35.672 23.059-54.89 62.433-54.244 99.689.066 65.265 53.187 118.357 118.472 118.357 66.93 0 119.509-55.76 118.486-118.604-.082-80.456-78.597-136.753-154.199-112.869-3.95 1.247-6.141 5.461-4.893 9.41 1.247 3.949 5.462 6.141 9.41 4.893 5.95-1.879 12.052-3.211 18.246-3.985-12.042 28.046-4.172 55.067 1.76 68.958-3.802 1.266-7.321 3.157-10.433 5.553-10.349-3.416-39.791-15.777-48.554-47.897 4.331-3.987 9.037-7.641 14.091-10.907 3.479-2.249 4.476-6.891 2.228-10.37zm20.147 108.535c1.266 3.802 3.158 7.321 5.554 10.434-3.414 10.343-15.76 39.749-47.829 48.535-14.287-15.462-23.927-35.278-26.679-57.207 10.734 4.608 21.316 6.3 31.072 6.3 15.731 0 29.308-4.401 37.882-8.062zm33.679-31.721c.015 0 .031.001.046.001h.063c11.285.038 20.455 9.231 20.455 20.525 0 11.318-9.208 20.526-20.525 20.526-11.318 0-20.526-9.208-20.526-20.526 0-11.305 9.187-20.505 20.487-20.526zm63.425-61.217c-28.313 11.328-41.841 35.983-47.463 49.989-3.475-1.75-7.274-2.945-11.282-3.47-4.815-9.717-16.828-39.485-.489-68.174 22.258.883 42.731 8.829 59.234 21.655zm39.286 68.785c-28.046-12.04-55.065-4.171-68.954 1.76-1.263-3.793-3.149-7.304-5.536-10.411 3.456-10.252 15.994-39.8 47.813-48.556 14.286 15.463 23.926 35.279 26.677 57.207zm-20.931 76.344c-11.328-28.314-35.983-41.842-49.988-47.464 1.754-3.483 2.951-7.293 3.474-11.311 9.751-4.908 39.283-16.957 68.17-.462-.882 22.259-8.829 42.733-21.656 59.237zm-145.127 18.355c28.313-11.328 41.841-35.982 47.463-49.988 3.483 1.754 7.293 2.951 11.311 3.475 4.907 9.751 16.957 39.283.462 68.169-22.258-.883-42.732-8.83-59.236-21.656zm74.582-48.024c3.802-1.266 7.321-3.158 10.434-5.554 10.342 3.414 39.749 15.76 48.534 47.83-15.462 14.287-35.278 23.926-57.207 26.678 12.04-28.045 4.171-55.064-1.761-68.954zm-42.949-49.64c-1.754 3.483-2.951 7.293-3.474 11.312-9.751 4.908-39.282 16.958-68.169.462.864-21.868 8.538-42.497 21.623-59.319 11.312 28.368 36 41.917 50.02 47.545z"/><path d="m504.5 129.343c4.143 0 7.5-3.357 7.5-7.5v-66.573c0-4.143-3.357-7.5-7.5-7.5h-42.623c-4.143 0-7.5 3.357-7.5 7.5v14.661h-257.012c-44.166 0-84.989 14.583-117.91 39.185l-17.758-17.759c-11.608-11.607-30.496-11.607-42.103 0s-11.606 30.494 0 42.102l18.036 18.036c-23.66 32.548-37.63 72.574-37.63 115.801 0 41.958 13.208 82.327 37.571 115.86l-17.976 17.977c-5.622 5.623-8.719 13.1-8.719 21.051 0 7.952 3.097 15.428 8.719 21.051 5.805 5.804 13.427 8.706 21.052 8.705 7.622-.001 15.247-2.902 21.05-8.705l17.696-17.695c29.275 21.868 64.129 35.246 101.005 38.388 4.124.358 7.758-2.709 8.109-6.836s-2.709-7.758-6.836-8.109c-93.46-7.965-166.671-87.771-166.671-181.687 0-100.557 81.809-182.365 182.365-182.365h257.012v102.823h-81.307c-2.501 0-4.837 1.246-6.229 3.323s-1.658 4.711-.709 7.024c9.022 21.981 13.598 45.262 13.598 69.194 0 95.74-74.756 175.662-170.188 181.951-4.133.272-7.263 3.844-6.99 7.977.261 3.966 3.559 7.007 7.476 7.007.166 0 .333-.005.501-.017 37.4-2.464 72.835-15.404 102.706-37.117l16.138 16.137c11.633 11.633 30.465 11.637 42.101.001 5.623-5.623 8.72-13.099 8.72-21.051 0-7.951-3.097-15.428-8.719-21.051l-15.865-15.865c25.362-33.935 39.122-75.074 39.122-117.972 0-22.173-3.631-43.833-10.808-64.542h70.455v14.661c0 4.143 3.357 7.5 7.5 7.5h42.621c4.143 0 7.5-3.357 7.5-7.5v-66.572c0-4.143-3.357-7.5-7.5-7.5s-7.5 3.357-7.5 7.5v59.072h-27.623v-147.144h27.623v59.073c0 4.142 3.357 7.5 7.5 7.5zm-436.839 286.714-16.571 16.57c-5.759 5.761-15.13 5.759-20.889 0-2.789-2.789-4.325-6.498-4.325-10.443 0-3.944 1.536-7.654 4.326-10.443l16.709-16.709c1.751 2.06 3.548 4.087 5.39 6.083 4.875 5.281 10.004 10.266 15.36 14.942zm-20.688-276.435-16.771-16.771c-5.759-5.759-5.759-15.129 0-20.887 5.759-5.761 15.13-5.759 20.889 0l16.634 16.633c-7.427 6.484-14.366 13.513-20.752 21.025zm313.892 272.118c2.79 2.789 4.326 6.499 4.326 10.443 0 3.945-1.536 7.654-4.326 10.443-5.77 5.772-15.114 5.774-20.888 0l-14.873-14.873c5.614-4.776 10.99-9.888 16.099-15.324 1.677-1.784 3.317-3.595 4.921-5.432z"/></g></svg>