<svg id="Capa_1" enable-background="new 0 0 512 512" height="512" viewBox="0 0 512 512" width="512" xmlns="http://www.w3.org/2000/svg"><g><path d="m299.901 96.051c5.317 0 9.644 4.326 9.644 9.644v15.49c0 4.143 3.357 7.5 7.5 7.5s7.5-3.357 7.5-7.5v-15.49c0-13.589-11.055-24.644-24.644-24.644-5.317 0-9.644-4.326-9.644-9.644v-10.426c0-5.317 4.326-9.644 9.644-9.644h24.288c13.589 0 24.644-11.055 24.644-24.644v-8.161c0-4.143-3.357-7.5-7.5-7.5s-7.5 3.357-7.5 7.5v8.161c0 5.317-4.326 9.644-9.644 9.644h-24.288c-13.589 0-24.644 11.055-24.644 24.644v10.427c0 13.588 11.055 24.643 24.644 24.643z"/><path d="m184.693 333.509h-65.197c-6.901 0-12.515 5.614-12.515 12.516v47.488c0 6.901 5.614 12.516 12.515 12.516h65.197c6.901 0 12.515-5.614 12.515-12.516v-47.488c0-6.902-5.614-12.516-12.515-12.516zm-2.485 57.52h-60.228v-42.52h60.228z"/><path d="m327.306 406.029h65.197c6.9 0 12.515-5.614 12.515-12.516v-47.488c0-6.901-5.614-12.516-12.515-12.516h-65.197c-6.901 0-12.516 5.614-12.516 12.516v47.488c.001 6.901 5.615 12.516 12.516 12.516zm2.485-57.52h60.228v42.52h-60.228z"/><path d="m504.5 485.967h-4.663c-1.919-10.409-9.612-19.047-20.051-21.983-4.874-10.979-15.694-18.041-27.729-18.041-.313 0-.626.005-.945.015-2.713-2.8-5.864-5.106-9.295-6.852v-141.427h11.983c2.701 0 5.194-1.453 6.525-3.803 1.332-2.351 1.297-5.235-.092-7.553l-9.239-15.418c34.534-5.528 61.006-35.529 61.006-71.596 0-6.517-.884-13.021-2.626-19.331-1.102-3.992-5.228-6.334-9.226-5.233-3.993 1.103-6.336 5.233-5.233 9.226 1.384 5.01 2.085 10.171 2.085 15.339 0 31.71-25.798 57.508-57.508 57.508s-57.508-25.798-57.508-57.508 25.798-57.508 57.508-57.508c16.479 0 32.196 7.102 43.124 19.484 2.741 3.105 7.48 3.402 10.586.66 3.105-2.74 3.401-7.48.66-10.586-13.773-15.607-33.591-24.559-54.37-24.559-31.027 0-57.566 19.591-67.896 47.052h-24.535l-9.204-33.752c-.89-3.263-3.854-5.526-7.235-5.526h-27.153c-3.382 0-6.346 2.264-7.235 5.526l-9.204 33.752h-163.616c-2.636 0-5.079 1.384-6.433 3.645l-30.155 50.321c-2.129 3.554-.975 8.16 2.579 10.289 1.207.724 2.536 1.067 3.848 1.067 2.549 0 5.035-1.3 6.44-3.646l27.971-46.677h240.073c-.495 3.415-.752 6.906-.752 10.456 0 38.108 29.552 69.445 66.943 72.296l6.636 11.074h-144.164c-.114 0-.222-.056-.287-.148l-27.58-38.989c-2.874-4.062-7.56-6.485-12.534-6.485-4.974.001-9.659 2.425-12.532 6.486l-27.579 38.987c-.066.094-.174.149-.288.149h-144.162l12.983-21.665c2.129-3.553.975-8.159-2.578-10.289-3.553-2.127-8.16-.974-10.289 2.578l-19.788 33.021c-1.389 2.317-1.424 5.202-.092 7.553 1.332 2.35 3.824 3.803 6.525 3.803h11.983v141.426c-3.431 1.746-6.583 4.052-9.296 6.852-.314-.01-.629-.015-.945-.015-12.032 0-22.852 7.062-27.729 18.042-10.44 2.935-18.133 11.573-20.051 21.982h-4.661c-4.142 0-7.5 3.357-7.5 7.5s3.358 7.5 7.5 7.5h497c4.143 0 7.5-3.357 7.5-7.5s-3.358-7.499-7.5-7.499zm-201.923-312.114 6.62-24.278h15.696l6.62 24.278zm-274.849 312.114c1.548-3.667 4.726-6.537 8.753-7.6 4.249-1.119 7.647-4.044 9.323-8.021 2.409-5.712 7.958-9.403 14.138-9.403.238 0 .476.006.695.015 4.119.185 8.047-1.387 10.786-4.314 3.798-4.058 9.176-6.385 14.754-6.385 8.62 0 16.305 5.481 19.125 13.642 1.311 3.789 4.249 6.824 8.061 8.327 5.763 2.271 9.793 7.665 10.424 13.74h-96.059zm199.014 0v-84.796c0-1.077.876-1.953 1.953-1.953h54.609c1.077 0 1.953.876 1.953 1.953v32.695c0 4.143 3.357 7.5 7.5 7.5s7.5-3.357 7.5-7.5v-32.695c0-9.348-7.605-16.953-16.953-16.953h-54.609c-9.348 0-16.953 7.605-16.953 16.953v84.796h-72.911c-.632-12.206-8.149-22.852-19.55-27.527-5.062-13.892-18.289-23.182-33.103-23.182-.332 0-.664.005-.995.015v-137.594h130.417c4.975 0 9.66-2.425 12.534-6.486l27.579-38.988c.044-.062.105-.148.288-.148s.247.09.288.148l27.579 38.989c2.874 4.061 7.559 6.485 12.533 6.485h130.417v137.594c-.331-.009-.663-.015-.995-.015-14.813 0-28.041 9.292-33.103 23.182-11.401 4.676-18.919 15.322-19.55 27.527h-72.912v-23.101c0-4.143-3.357-7.5-7.5-7.5s-7.5 3.357-7.5 7.5v23.101zm161.47 0c.631-6.075 4.661-11.469 10.425-13.74 3.812-1.504 6.75-4.539 8.061-8.328 2.819-8.159 10.505-13.641 19.124-13.641 5.579 0 10.957 2.327 14.755 6.386 2.74 2.927 6.68 4.506 10.768 4.314.237-.01.475-.016.713-.016 6.181 0 11.73 3.69 14.139 9.404 1.678 3.979 5.076 6.902 9.322 8.021 4.027 1.062 7.205 3.933 8.753 7.6z"/><path d="m343.317 203.629h-174.634c-4.142 0-7.5 3.357-7.5 7.5s3.358 7.5 7.5 7.5h174.634c4.143 0 7.5-3.357 7.5-7.5s-3.358-7.5-7.5-7.5z"/><path d="m144.595 252.49c0 4.143 3.358 7.5 7.5 7.5h55.604c4.142 0 7.5-3.357 7.5-7.5s-3.358-7.5-7.5-7.5h-55.604c-4.142 0-7.5 3.358-7.5 7.5z"/><path d="m296.801 252.49c0 4.143 3.357 7.5 7.5 7.5h55.604c4.143 0 7.5-3.357 7.5-7.5s-3.357-7.5-7.5-7.5h-55.604c-4.142 0-7.5 3.358-7.5 7.5z"/><path d="m446.779 160.337c-4.493-2.596-10.079-2.596-14.574 0l-22.819 13.175c-4.495 2.596-7.287 7.432-7.287 12.622v26.35c0 5.189 2.792 10.025 7.287 12.621l22.819 13.175c2.247 1.298 4.767 1.946 7.287 1.946s5.04-.648 7.287-1.946l22.819-13.175c4.495-2.596 7.287-7.432 7.287-12.621v-26.35c0-5.19-2.792-10.026-7.287-12.622zm15.106 51.901-22.394 12.929-22.394-12.929v-25.858l22.394-12.929 22.394 12.929z"/><path d="m439.492 184.437c-4.1 0-7.431 3.29-7.498 7.374-4.084.068-7.374 3.398-7.374 7.499s3.289 7.431 7.374 7.499c.068 4.084 3.398 7.374 7.498 7.374s7.431-3.29 7.498-7.374c4.084-.068 7.374-3.398 7.374-7.499s-3.289-7.431-7.374-7.499c-.067-4.085-3.398-7.374-7.498-7.374z"/></g></svg>